<svg xmlns="http://www.w3.org/2000/svg" viewBox="0 0 1080 1044"><defs><style>.cls-1,.cls-2,.cls-7{fill:#0071bc;}.cls-2,.cls-4,.cls-5,.cls-6{stroke:#fff;stroke-miterlimit:10;}.cls-3,.cls-5{fill:#fff;}.cls-4,.cls-6{fill:none;}.cls-4{stroke-width:25px;}.cls-5{stroke-width:6px;}.cls-6{stroke-width:11px;}.cls-7{font-size:232.73px;font-family:pandaman;}</style></defs><g id="Layer_2" data-name="Layer 2"><g id="logo"><rect class="cls-1" width="1080" height="1044" rx="522"/><g id="logo_group"><circle class="cls-2" cx="542.52" cy="364.14" r="147.52"/><path class="cls-3" d="M543.36,78C376.92,78,242,212.87,242,379.31a300,300,0,0,0,58.9,179A32.62,32.62,0,0,0,305,570.08L513.71,931.62c12.61,21.84,44.14,21.84,56.75,0L779.19,570.08a32.75,32.75,0,0,0,3-7.09,299.94,299.94,0,0,0,62.52-183.68C844.72,212.87,709.8,78,543.36,78Zm0,433.46A148.62,148.62,0,1,1,692,362.8,148.61,148.61,0,0,1,543.36,511.41Z"/><g id="magnifying_glass"><circle class="cls-4" cx="517" cy="342.72" r="63.15"/><rect class="cls-5" x="606.82" y="397.6" width="29.54" height="109.3" rx="1.94" transform="translate(-142.09 539.96) rotate(-42.59)"/><rect class="cls-6" x="570.37" y="385.36" width="8.43" height="29.64" transform="translate(-119.25 494.42) rotate(-42.59)"/></g><text class="cls-7" transform="translate(505.73 782.43) rotate(-30) scale(0.97 1)">f</text></g></g></g></svg>