<svg xmlns="http://www.w3.org/2000/svg" viewBox="0 0 602.72 870.05"><defs><style>.cls-1,.cls-6{fill:#0071bc;}.cls-1,.cls-3,.cls-4,.cls-5{stroke:#fff;stroke-miterlimit:10;}.cls-2,.cls-4{fill:#fff;}.cls-3,.cls-5{fill:none;}.cls-3{stroke-width:25px;}.cls-4{stroke-width:6px;}.cls-5{stroke-width:11px;}.cls-6{font-size:232.73px;font-family:pandaman;}</style></defs><g id="Layer_2" data-name="Layer 2"><g id="logo"><g id="logo_group"><circle class="cls-1" cx="300.52" cy="286.19" r="147.52"/><path class="cls-2" d="M301.36,0C134.92,0,0,134.92,0,301.36a300,300,0,0,0,58.9,179A32.62,32.62,0,0,0,63,492.13L271.71,853.67c12.61,21.84,44.14,21.84,56.75,0L537.19,492.13a32.75,32.75,0,0,0,3-7.09,299.94,299.94,0,0,0,62.52-183.68C602.72,134.92,467.8,0,301.36,0Zm0,433.46A148.62,148.62,0,1,1,450,284.85,148.61,148.61,0,0,1,301.36,433.46Z"/><g id="magnifying_glass"><circle class="cls-3" cx="275" cy="264.77" r="63.15"/><rect class="cls-4" x="364.82" y="319.64" width="29.54" height="109.3" rx="1.94" transform="translate(-153.18 355.62) rotate(-42.59)"/><rect class="cls-5" x="328.37" y="307.41" width="8.43" height="29.64" transform="translate(-130.33 310.08) rotate(-42.59)"/></g><text class="cls-6" transform="translate(263.73 704.47) rotate(-30) scale(0.97 1)">f</text></g></g></g></svg>