<svg xmlns="http://www.w3.org/2000/svg" viewBox="0 0 1080 1178"><defs><style>.cls-1,.cls-2,.cls-7{fill:#0071bc;}.cls-2,.cls-4,.cls-5,.cls-6{stroke:#fff;stroke-miterlimit:10;}.cls-3,.cls-5{fill:#fff;}.cls-4,.cls-6{fill:none;}.cls-4{stroke-width:25px;}.cls-5{stroke-width:6px;}.cls-6{stroke-width:11px;}.cls-7{font-size:276.09px;font-family:pandaman;}</style></defs><g id="Layer_2" data-name="Layer 2"><g id="logo"><rect class="cls-1" width="1080" height="1178"/><g id="logo_group"><circle class="cls-2" cx="544.5" cy="424" r="175"/><path class="cls-3" d="M545.5,84.5C348.06,84.5,188,244.56,188,442a355.82,355.82,0,0,0,69.88,212.29,38.61,38.61,0,0,0,4.83,14l247.61,428.88c15,25.92,52.37,25.92,67.33,0L825.26,668.31a38.76,38.76,0,0,0,3.57-8.41A355.83,355.83,0,0,0,903,442C903,244.56,742.94,84.5,545.5,84.5Zm0,514.21a176.3,176.3,0,1,1,176.3-176.3A176.3,176.3,0,0,1,545.5,598.71Z"/><g id="magnifying_glass"><circle class="cls-4" cx="514.22" cy="398.6" r="74.91"/><rect class="cls-5" x="620.78" y="463.69" width="35.04" height="129.67" rx="1.94" transform="translate(-189.3 571.39) rotate(-42.59)"/><rect class="cls-6" x="577.55" y="449.17" width="10" height="35.16" transform="translate(-162.21 517.37) rotate(-42.59)"/></g><text class="cls-7" transform="translate(500.86 920.21) rotate(-30) scale(0.97 1)">f</text></g></g></g></svg>