<svg xmlns="http://www.w3.org/2000/svg" viewBox="0 0 620.05 300.66"><defs><style>.cls-1,.cls-3,.cls-4,.cls-5{fill:#0071bc;}.cls-2{fill:none;stroke:#0071bc;stroke-miterlimit:10;stroke-width:3px;}.cls-3{font-size:120.17px;font-family:AnjaElianeaccent-Nornal, Anja Eliane accent;}.cls-4{font-size:80.33px;font-family:pandaman, pandaman;}.cls-5{font-size:181px;font-family:Gordon-Regular, Gordon;}</style></defs><title>logo_login_signup</title><g id="Layer_2" data-name="Layer 2"><g id="login_signup"><g id="default"><g id="logo_login_signup"><path class="cls-1" d="M275.34,143.05l35-60.58a5.5,5.5,0,0,0-4.76-8.24H235.61a5.5,5.5,0,0,0-4.76,8.24l35,60.58A5.49,5.49,0,0,0,275.34,143.05Z"/><path class="cls-1" d="M270.8,0a50.5,50.5,0,1,0,50.5,50.5A50.5,50.5,0,0,0,270.8,0Zm0,72.64a24.91,24.91,0,1,1,24.9-24.91A24.91,24.91,0,0,1,270.8,72.64Z"/><path class="cls-1" d="M346.22,149.25a19.89,19.89,0,1,0,19.89,19.89A19.89,19.89,0,0,0,346.22,149.25Zm0,35.81a15.93,15.93,0,1,1,15.93-15.92A15.93,15.93,0,0,1,346.22,185.06Z"/><path class="cls-2" d="M346.13,146.15a23.06,23.06,0,0,1,23.08,23.07"/><rect class="cls-1" x="374.96" y="113.6" width="11.34" height="39.62" rx="5.67" ry="5.67" transform="translate(555.44 496.91) rotate(-135)"/><rect class="cls-1" x="365.08" y="137.71" width="5.68" height="16.7" transform="translate(524.79 509.5) rotate(-135)"/><text class="cls-3" transform="translate(329.69 252.42) scale(0.95 1)">i</text><text class="cls-4" transform="translate(371.13 230.38)">n</text><text class="cls-4" transform="translate(543.13 230.38)">r</text><text class="cls-4" transform="translate(0 230.47)">funf</text><text class="cls-5" transform="translate(454.77 251.97)">d</text></g></g></g></g></svg>