<svg xmlns="http://www.w3.org/2000/svg" viewBox="0 0 631.75 184.89"><defs><style>.cls-1,.cls-3,.cls-4,.cls-5,.cls-6{fill:#0071bc;}.cls-2{fill:none;stroke-width:3px;}.cls-2,.cls-6{stroke:#0071bc;stroke-miterlimit:10;}.cls-3{font-size:120.17px;font-family:AnjaElianeaccent-Nornal, Anja Eliane accent;}.cls-4{font-size:80.33px;font-family:pandaman, pandaman;}.cls-5{font-size:181px;font-family:Gordon-Regular, Gordon;}</style></defs><title>magnifying_glass (2)</title><g id="Layer_2" data-name="Layer 2"><g id="default"><g id="magnifying_glass"><path class="cls-1" d="M357.92,33.48a19.89,19.89,0,1,0,19.89,19.89A19.89,19.89,0,0,0,357.92,33.48Zm0,35.81a15.93,15.93,0,1,1,15.93-15.92A15.92,15.92,0,0,1,357.92,69.29Z"/><path class="cls-2" d="M357.84,30.38a23.06,23.06,0,0,1,23.07,23.07"/><rect class="cls-1" x="386.67" y="-2.16" width="11.34" height="39.62" rx="5.67" ry="5.67" transform="translate(657.28 307.55) rotate(-135)"/><rect class="cls-1" x="376.78" y="21.94" width="5.68" height="16.7" transform="translate(626.63 320.14) rotate(-135)"/><text class="cls-3" transform="translate(341.39 136.65) scale(0.95 1)">i</text><text class="cls-4" transform="translate(382.84 114.61)">n</text><text class="cls-4" transform="translate(554.84 114.61)">r</text><text class="cls-4" transform="translate(11.7 114.7)">funf</text><text class="cls-5" transform="translate(466.47 136.2)">d</text><line class="cls-6" x1="609" y1="137.02" y2="137.02"/></g></g></g></svg>