<svg xmlns="http://www.w3.org/2000/svg" viewBox="0 0 101 145.8"><defs><style>.cls-1{fill:#0071bc;}</style></defs><title>map_marker</title><g id="Layer_2" data-name="Layer 2"><g id="default"><g id="map_marker"><path class="cls-1" d="M55,143.05,90,82.47a5.5,5.5,0,0,0-4.76-8.24H15.31a5.5,5.5,0,0,0-4.76,8.24l35,60.58A5.49,5.49,0,0,0,55,143.05Z"/><path class="cls-1" d="M50.5,0A50.5,50.5,0,1,0,101,50.5,50.5,50.5,0,0,0,50.5,0Zm0,72.64A24.91,24.91,0,1,1,75.4,47.73,24.9,24.9,0,0,1,50.5,72.64Z"/></g></g></g></svg>